Coordinates
version=1
nRows=11
nColumns=42
inDegrees=yes

Units are S.I. units (second, meters, Newtons, ...)
If the header above contains a line with 'inDegrees', this indicates whether rotational values are in degrees (yes) or radians (no).

endheader
time	pelvis_tilt	pelvis_list	pelvis_rotation	pelvis_tx	pelvis_ty	pelvis_tz	hip_flexion_r	hip_adduction_r	hip_rotation_r	knee_angle_r	knee_adduction_r	knee_angle_r_beta	ankle_angle_r	subtalar_angle_r	mtp_angle_r	hip_flexion_l	hip_adduction_l	hip_rotation_l	knee_angle_l	knee_adduction_l	knee_angle_l_beta	ankle_angle_l	subtalar_angle_l	mtp_angle_l	lumbar_extension	lumbar_bending	lumbar_rotation	arm_flex_r	arm_add_r	arm_rot_r	elbow_flex_r	pro_sup_r	wrist_flex_r	wrist_dev_r	arm_flex_l	arm_add_l	arm_rot_l	elbow_flex_l	pro_sup_l	wrist_flex_l	wrist_dev_l
      1.47000000	      0.28466167	      0.76376851	      3.90128713	      0.44629659	      0.94707575	     -0.11628090	     23.61627176	     -5.17845421	    -16.82268553	     12.92470805	      3.46480932	      0.22557871	      6.74738167	     19.35909661	     -7.54682291	    -12.70976386	      1.03169918	     -8.50890123	     16.56793723	     -2.25475338	      0.28916506	     19.28633975	     27.47945621	     -7.54682291	     -9.16684669	      0.73492950	     -5.85820761	    -11.79198875	    -11.45801648	      5.57188637	     24.03727170	     90.00000001	      0.00000000	      0.00000000	     12.80577659	    -23.60802510	     18.56087704	     51.86304056	     90.00000001	      0.00000000	      0.00000000
      1.48000000	      0.26332007	      0.42396983	      4.09471146	      0.45931040	      0.94662051	     -0.11591102	     23.78432373	     -4.80619243	    -16.68487540	     14.35370238	      3.19415214	      0.25051937	      6.08915503	     18.56044720	     -7.54587703	    -12.77650886	      0.38491646	     -8.24404318	     17.85966285	     -2.20934357	      0.31170992	     18.63757305	     27.05842388	     -7.54587703	     -8.99512630	      1.32598258	     -5.89900138	    -11.84198937	    -11.50861740	      5.34841330	     23.81791538	     90.00000001	      0.00000000	      0.00000000	     12.13888128	    -23.58771064	     18.14223532	     52.83701505	     90.00000001	      0.00000000	      0.00000000
      1.49000000	      0.24964146	      0.10051501	      4.22047928	      0.47238774	      0.94647160	     -0.11545978	     23.80088333	     -4.40794193	    -15.95206480	     15.58334896	      3.08026590	      0.27198075	      5.26867514	     17.06837190	     -7.54366196	    -12.74930635	     -0.24592509	     -7.98640125	     19.31151674	     -2.13317630	      0.33704955	     17.86564952	     26.75189229	     -7.54366196	     -8.85747799	      1.89758447	     -6.00216131	    -11.63527553	    -11.43658604	      4.61287891	     23.28706264	     90.00000001	      0.00000000	      0.00000000	     11.01340435	    -23.53412113	     16.97358896	     54.40765259	     90.00000001	      0.00000000	      0.00000000
      1.50000000	      0.29393916	     -0.27939974	      4.31301856	      0.48559243	      0.94665221	     -0.11491904	     23.79975413	     -3.97380458	    -15.63685920	     16.98910387	      2.88307475	      0.29651580	      4.69550468	     16.15073882	     -7.54273701	    -12.64871676	     -0.96469292	     -7.80689620	     20.97482813	     -2.02800104	      0.36607981	     16.56978324	     26.15634074	     -7.54273701	     -8.76296039	      2.53614919	     -5.86022118	    -11.72176019	    -11.52670395	      4.38196945	     23.27573153	     90.00000001	      0.00000000	      0.00000000	     10.48299105	    -23.34759336	     16.79160563	     54.69434375	     90.00000001	      0.00000000	      0.00000000
      1.51000000	      0.31448876	     -0.64123226	      4.35856789	      0.49872814	      0.94709298	     -0.11426895	     23.74658735	     -3.54610724	    -15.05116095	     18.28780061	      2.80313439	      0.31918233	      4.14561524	     14.92937886	     -7.54197757	    -12.32554141	     -1.69776300	     -7.76078150	     22.92900422	     -1.90595974	      0.40018662	     14.95223276	     25.55835272	     -7.54197757	     -8.66635741	      3.13299467	     -5.69053520	    -11.70885946	    -11.57592717	      4.09483911	     23.17860828	     90.00000001	      0.00000000	      0.00000000	      9.73994220	    -23.19933837	     16.47160982	     55.19182712	     90.00000001	      0.00000000	      0.00000000
      1.52000000	      0.36252805	     -1.00242364	      4.30773323	      0.51179351	      0.94790062	     -0.11351779	     23.39849841	     -3.00636735	    -13.23255988	     19.08135206	      3.16684682	      0.33303242	      3.40799907	     11.60854360	     -7.53908583	    -11.88033798	     -2.41324073	     -7.64274285	     25.09920498	     -1.72207898	      0.43806377	     13.01665615	     24.75594193	     -7.53908583	     -8.63687832	      3.72706995	     -5.52543524	    -11.51314988	    -11.49473231	      3.09293947	     22.90627184	     90.00000001	      0.00000000	      0.00000000	      8.70773911	    -22.87417324	     15.39887548	     55.99755522	     90.00000001	      0.00000000	      0.00000000
      1.53000000	      0.47869916	     -1.31641513	      4.28155722	      0.52492248	      0.94885386	     -0.11276616	     23.12789663	     -2.59640570	    -12.68633544	     20.24287400	      3.18050487	      0.35330480	      3.47787140	     10.96481892	     -7.53859194	    -11.28133135	     -3.13342309	     -7.74536463	     27.57235871	     -1.61900090	      0.48122844	     10.57726574	     24.02563715	     -7.53859194	     -8.67070548	      4.25816412	     -5.24597470	    -11.47658407	    -11.57868338	      2.91884581	     22.90671462	     90.00000001	      0.00000000	      0.00000000	      8.05908468	    -22.66909072	     15.40171261	     56.05757254	     90.00000001	      0.00000000	      0.00000000
      1.54000000	      0.55791129	     -1.59276579	      4.16680013	      0.53788240	      0.94994604	     -0.11190334	     22.80232718	     -2.17493602	    -11.83278148	     21.22151755	      3.33293109	      0.37038535	      3.56566414	      9.96986086	     -7.53798425	    -10.45995530	     -3.81063993	     -7.90743216	     30.24636448	     -1.52864636	      0.52789865	      7.66691781	     23.08489385	     -7.53798425	     -8.68583830	      4.72422335	     -4.91813548	    -11.34856617	    -11.64258537	      2.69385495	     22.94809875	     90.00000001	      0.00000000	      0.00000000	      7.26219927	    -22.49742399	     15.26047361	     56.24628808	     90.00000001	      0.00000000	      0.00000000
      1.55000000	      0.66019498	     -1.83038339	      4.00097125	      0.55068772	      0.95131949	     -0.11101830	     22.17421753	     -1.70438216	    -10.01175468	     21.67348313	      3.86651891	      0.37827364	      3.31428695	      7.04027218	     -7.53547178	     -9.53888088	     -4.40894829	     -7.71341928	     33.00809104	     -1.29522774	      0.57609987	      4.43381174	     21.31484579	     -7.53547178	     -8.76388701	      5.13525412	     -4.58843394	    -11.07417690	    -11.62077600	      1.88250745	     22.84757977	     90.00000001	      0.00000000	      0.00000000	      6.29339021	    -22.14089103	     14.57984104	     56.56886481	     90.00000001	      0.00000000	      0.00000000
      1.56000000	      0.80748002	     -2.07769672	      3.85095480	      0.56341081	      0.95258850	     -0.11007771	     21.61793779	     -1.25813052	     -9.51228584	     22.38758659	      3.93771702	      0.39073710	      3.82107846	      6.73686819	     -7.53481974	     -8.43693247	     -5.07042034	     -7.91580362	     35.98207707	     -1.29560758	      0.62800572	      1.16916394	     20.21335430	     -7.53481974	     -8.87985738	      5.53601235	     -4.19573032	    -10.86558032	    -11.68642160	      1.69828095	     22.89240841	     90.00000001	      0.00000000	      0.00000000	      5.57561862	    -21.94352902	     14.63388734	     56.43312427	     90.00000001	      0.00000000	      0.00000000
      1.57000000	      0.95719848	     -2.21601562	      3.68764861	      0.57593392	      0.95398678	     -0.10920081	     20.93354143	     -0.93267856	     -8.89878510	     22.88169382	      4.10718828	      0.39936090	      4.26779282	      6.10307950	     -7.53292632	     -7.27449426	     -5.53894265	     -7.59344384	     38.89533260	     -1.09313073	      0.67885162	     -2.10035685	     17.92255403	     -7.53292632	     -9.02226969	      5.80516173	     -3.81534002	    -10.55450910	    -11.71133930	      1.22462256	     22.90317455	     90.00000001	      0.00000000	      0.00000000	      4.82515079	    -21.66567941	     14.52982378	     56.28615597	     90.00000001	      0.00000000	      0.00000000
